# This file uses centimeters as units for non-parametric coordinates.

mtllib Texture_Gravestone1.mtl
g default
v 0.547755 0.405651 -1.903257
v 1.391272 0.527372 -1.489952
v 0.518092 0.540257 -1.898665
v 1.361609 0.661977 -1.485362
v 0.661106 0.562934 -2.134228
v 1.504623 0.684655 -1.720923
v 0.690769 0.428328 -2.138818
v 1.534285 0.550049 -1.725515
v 0.649369 0.559424 -1.904410
v 1.285125 0.651165 -1.592904
v 1.373347 0.665487 -1.715178
v 0.737589 0.573746 -2.026686
v 1.197499 1.609770 -1.517937
v 0.547662 1.517889 -2.095562
v 0.612554 1.525361 -1.804246
v 1.008192 1.582453 -1.610993
v 1.132607 1.602298 -1.809253
v 0.736970 1.545205 -2.002506
v 0.982152 1.694117 -1.615296
v 0.948364 1.735390 -1.628435
v 0.903257 1.759717 -1.648219
v 0.853699 1.763394 -1.671637
v 0.999479 1.642181 -1.610802
v 0.978115 1.783238 -1.869897
v 1.027672 1.779562 -1.846479
v 1.072779 1.755235 -1.826695
v 1.106568 1.713962 -1.813555
v 1.123895 1.662025 -1.809061
v 0.662514 1.724976 -1.765813
v 0.626218 1.688903 -1.785790
v 0.605615 1.639780 -1.799219
v 0.603842 1.585088 -1.804054
v 0.708978 1.742509 -1.742327
v 0.730030 1.659625 -1.997480
v 0.750633 1.708747 -1.984051
v 0.786929 1.744821 -1.964073
v 0.833393 1.762354 -1.940588
v 0.728257 1.604932 -2.002315
v 1.260579 1.551057 -1.752406
v 1.105296 1.528650 -1.828741
v 1.298058 0.761260 -1.742900
v 0.777733 0.686174 -1.997677
v 0.626537 1.459561 -2.062865
v 0.781451 1.481914 -1.986712
v 0.774380 1.530802 -1.986678
v 0.775885 1.575568 -1.982834
v 0.792795 1.615775 -1.971950
v 0.822535 1.645302 -1.955681
v 0.860578 1.659654 -1.936506
v 0.979040 1.676749 -1.878721
v 1.019593 1.673741 -1.859557
v 1.056484 1.653830 -1.843323
v 1.084096 1.620048 -1.832490
v 1.098225 1.577538 -1.828707
v 1.140140 1.531447 -1.552222
v 0.985225 1.509093 -1.628376
v 0.978154 1.557980 -1.628342
v 0.964026 1.600491 -1.632124
v 0.936414 1.634273 -1.642957
v 0.899523 1.654184 -1.659191
v 0.858969 1.657192 -1.678355
v 0.740508 1.640097 -1.736139
v 0.702465 1.625745 -1.755315
v 0.672725 1.596218 -1.771583
v 0.655815 1.556011 -1.782468
v 0.654310 1.511244 -1.786311
v 0.661381 1.462357 -1.786345
v 0.506098 1.439951 -1.862679
v 0.693880 0.672336 -1.873268
v 1.214204 0.747422 -1.618492
v 1.241158 1.550391 -1.712533
v 1.085875 1.527984 -1.788867
v 1.278637 0.760594 -1.703026
v 0.758312 0.685508 -1.957803
v 0.607116 1.458894 -2.022991
v 0.762030 1.481248 -1.946838
v 0.754959 1.530135 -1.946804
v 0.756464 1.574901 -1.942961
v 0.773374 1.615109 -1.932076
v 0.803114 1.644636 -1.915807
v 0.841157 1.658988 -1.896632
v 0.959619 1.676083 -1.838847
v 1.000172 1.673075 -1.819683
v 1.037063 1.653164 -1.803449
v 1.064675 1.619381 -1.792616
v 1.078804 1.576871 -1.788833
v 1.158945 1.536366 -1.592093
v 1.004031 1.514013 -1.668246
v 0.996960 1.562900 -1.668212
v 0.982831 1.605410 -1.671995
v 0.955220 1.639192 -1.682828
v 0.918329 1.659103 -1.699062
v 0.877775 1.662112 -1.718226
v 0.759314 1.645016 -1.776010
v 0.721271 1.630665 -1.795186
v 0.691531 1.601137 -1.811454
v 0.674621 1.560930 -1.822339
v 0.673115 1.516164 -1.826182
v 0.680186 1.467277 -1.826216
v 0.524904 1.444870 -1.902550
v 0.712685 0.677255 -1.913139
v 1.233010 0.752341 -1.658363
v 0.479440 1.263340 -1.899245
v 1.335110 1.388631 -1.715776
v 1.291148 1.624702 -1.666465
v 0.454013 1.502957 -1.947033
v 0.467242 1.507879 -1.873449
v 1.274925 1.622834 -1.739294
v 1.281331 1.629306 -1.743888
vt 0.956053 0.176556
vt 0.801828 0.313269
vt 0.870030 0.309240
vt 0.791470 0.472083
vt 0.944735 0.498964
vt 0.957832 0.312625
vt 0.942004 0.502746
vt 0.924138 0.477892
vt 0.955760 0.177386
vt 0.955760 0.226532
vt 0.906908 0.176556
vt 0.906908 0.225701
vt 0.753819 0.261000
vt 0.749273 0.262231
vt 0.999282 0.243399
vt 0.995228 0.193474
vt 0.839156 0.817293
vt 0.897753 0.825508
vt 0.887433 0.865095
vt 0.828836 0.856880
vt 0.745922 0.207298
vt 0.985798 0.246471
vt 0.993020 0.693599
vt 0.984503 0.245361
vt 0.941831 0.697986
vt 0.962715 0.526349
vt 0.790903 0.541057
vt 0.978688 0.042214
vt 0.761208 0.061854
vt 0.780228 0.082436
vt 0.959274 0.516406
vt 0.834969 0.707123
vt 0.942579 0.708636
vt 0.958197 0.066366
vt 0.735732 0.267826
vt 0.759278 0.251121
vt 0.835717 0.717774
vt 0.940668 0.718363
vt 0.933888 0.727051
vt 0.800532 0.261972
vt 0.812307 0.246329
vt 0.800450 0.274740
vt 0.976001 0.324070
vt 0.812239 0.256780
vt 0.812015 0.112360
vt 0.792433 0.143071
vt 0.980723 0.280376
vt 0.991834 0.281558
vt 0.987112 0.325252
vt 0.955670 0.515709
vt 0.960381 0.472119
vt 0.971491 0.473300
vt 0.966780 0.516891
vt 0.962294 0.459824
vt 0.973404 0.461006
vt 0.964022 0.448633
vt 0.975132 0.449814
vt 0.965664 0.437429
vt 0.923274 0.733376
vt 0.910439 0.736376
vt 0.871350 0.739718
vt 0.858249 0.738936
vt 0.846877 0.734491
vt 0.963453 0.472763
vt 0.993926 0.250269
vt 0.931638 0.252874
vt 0.974577 0.473809
vt 0.970397 0.517452
vt 0.931718 0.266336
vt 0.965217 0.460447
vt 0.928647 0.278483
vt 0.976341 0.461493
vt 0.919759 0.289043
vt 0.966809 0.449236
vt 0.993110 0.695058
vt 0.920211 0.156771
vt 0.969947 0.532430
vt 0.939924 0.698442
vt 0.976774 0.438610
vt 0.791879 0.543744
vt 0.776125 0.708846
vt 0.829186 0.705470
vt 0.829468 0.715712
vt 0.940206 0.708684
vt 0.832393 0.724684
vt 0.840219 0.731951
vt 0.851753 0.736407
vt 0.865241 0.737373
vt 0.967151 0.426203
vt 0.905749 0.734802
vt 0.906407 0.296407
vt 0.977933 0.450282
vt 0.890625 0.299454
vt 0.968314 0.438013
vt 0.843007 0.301434
vt 0.979438 0.439059
vt 0.827196 0.299701
vt 0.969665 0.426770
vt 0.813763 0.293451
vt 0.980788 0.427816
vt 0.804754 0.283636
vt 0.970817 0.415506
vt 0.801541 0.271750
vt 0.981941 0.416552
vt 0.801461 0.258287
vt 0.973907 0.382172
vt 0.766614 0.046493
vt 0.803642 0.285842
vt 0.814849 0.265867
vt 0.995455 0.739244
vt 0.873831 0.934255
vt 0.834149 0.235011
vt 0.812877 0.294665
vt 0.844726 0.473374
vt 0.936067 0.334598
vt 0.854691 0.317615
vt 0.854297 0.320670
vt 0.844333 0.476429
vt 0.906615 0.226532
vt 0.906615 0.177386
vt 0.956053 0.225701
vt 0.822405 0.273088
vt 0.826750 0.299865
vt 0.833757 0.277345
vt 0.843149 0.300651
vt 0.847176 0.277988
vt 0.892624 0.296185
vt 0.887662 0.274334
vt 0.909051 0.292436
vt 0.901105 0.271267
vt 0.923007 0.284724
vt 0.912526 0.264955
vt 0.932367 0.274223
vt 0.920186 0.256361
vt 0.935705 0.262531
vt 0.922919 0.246791
vt 0.978261 0.427384
vt 0.935787 0.249763
vt 0.944234 0.732306
vt 0.903181 0.862052
vt 0.922987 0.236341
vt 0.815234 0.926040
vt 0.817277 0.910974
vt 0.875875 0.919189
vt 0.789801 0.228659
vt 0.853204 0.748214
vt 0.911801 0.756430
vt 0.909623 0.771477
vt 0.851026 0.763262
vt 0.883984 0.878496
vt 0.825387 0.870281
vt 0.880790 0.891960
vt 0.976142 0.231539
vt 0.909501 0.907925
vt 0.855128 0.501760
vt 0.975798 0.037769
vt 0.969515 0.915802
vt 0.985031 0.383218
vt 0.974846 0.370887
vt 0.822193 0.883745
vt 0.878044 0.905523
vt 0.819447 0.897308
vt 0.907333 0.785124
vt 0.848736 0.776908
vt 0.904487 0.798665
vt 0.845890 0.790450
vt 0.833253 0.163891
vt 0.789049 0.175308
vt 0.799575 0.158441
vt 0.780573 0.157118
vt 0.763049 0.244452
vt 0.940416 0.730396
vt 0.876893 0.479787
vt 0.957609 0.062005
vt 0.971668 0.235758
vt 0.786406 0.069141
vt 0.985970 0.371934
vt 0.814141 0.242315
vt 0.814226 0.253335
vt 0.816873 0.263065
vt 0.824262 0.271100
vt 0.835267 0.276217
vt 0.848212 0.277636
vt 0.887190 0.276018
vt 0.900105 0.273524
vt 0.911024 0.267497
vt 0.918284 0.258853
vt 0.920781 0.248910
vt 0.920696 0.237890
vt 0.975590 0.359588
vt 0.986714 0.360635
vt 0.976187 0.348281
vt 0.783658 0.711521
vt 0.987311 0.349327
vt 0.976707 0.336969
vt 0.838965 0.727060
vt 0.987831 0.338015
vt 0.977271 0.324540
vt 0.988394 0.325586
vt 0.981460 0.280793
vt 0.859105 0.248377
vt 0.920072 0.139392
vt 0.811863 0.126991
vt 0.854115 0.187202
vt 0.848845 0.260226
vt 0.813791 0.112018
vt 0.922000 0.124419
vt 0.834964 0.197153
vt 0.878403 0.197189
vt 0.902543 0.248414
vt 0.992584 0.281839
vt 0.879302 0.260246
vt 0.884572 0.187222
vt 0.824932 0.163471
vt 0.991579 0.734790
vt 0.980493 0.869018
vt 0.781470 0.228254
vt 0.901226 0.812113
vt 0.814818 0.233030
vt 0.825684 0.216834
vt 0.842628 0.803898
vt 0.956819 0.912129
vt 0.870956 0.311639
vt 0.888822 0.336493
vt 0.896886 0.907231
vt 0.968440 0.414953
vt 0.979551 0.416134
vt 0.919137 0.732131
vt 0.971936 0.381658
vt 0.983046 0.382840
vt 0.973012 0.370386
vt 0.984122 0.371567
vt 0.973893 0.359096
vt 0.985004 0.360278
vt 0.974628 0.347797
vt 0.985738 0.348978
vt 0.975287 0.336492
vt 0.930386 0.726229
vt 0.921674 0.139512
vt 0.920453 0.121115
vt 0.937784 0.717996
vt 0.793896 0.125812
vt 0.920866 0.158750
vt 0.794360 0.143040
vt 0.986397 0.337673
vt 0.918745 0.136139
vt 0.810308 0.127384
vt 0.795835 0.125632
vt 0.922342 0.141342
vt 0.801435 0.316324
vt 0.857849 0.499643
vt 0.956915 0.308560
vt 0.791864 0.469028
vn -0.422174 -0.123665 0.898040
vn -0.422174 -0.123665 0.898040
vn -0.422174 -0.123665 0.898040
vn -0.422174 -0.123665 0.898040
vn -0.183354 0.982905 -0.016679
vn -0.192420 0.981053 -0.022553
vn -0.108877 0.993568 0.031126
vn -0.099721 0.994329 0.036947
vn 0.422174 0.123664 -0.898040
vn 0.422174 0.123664 -0.898040
vn 0.422174 0.123664 -0.898040
vn 0.422174 0.123664 -0.898040
vn 0.145988 -0.989264 -0.006603
vn 0.145988 -0.989264 -0.006603
vn 0.145988 -0.989264 -0.006603
vn 0.145988 -0.989264 -0.006603
vn 0.835709 0.166310 0.523385
vn 0.835709 0.166310 0.523385
vn 0.835709 0.166310 0.523385
vn 0.835709 0.166310 0.523385
vn -0.835708 -0.166311 -0.523385
vn -0.835708 -0.166311 -0.523385
vn -0.835708 -0.166311 -0.523385
vn -0.835708 -0.166311 -0.523385
vn -0.145372 0.989363 0.005318
vn -0.145469 0.989348 0.005520
vn -0.144880 0.989440 0.004292
vn -0.144953 0.989429 0.004443
vn -0.145372 0.989363 0.005318
vn -0.144953 0.989429 0.004443
vn -0.145469 0.989348 0.005519
vn -0.144880 0.989440 0.004292
vn 0.839664 0.080078 0.537170
vn 0.971027 0.043416 0.234995
vn 0.560790 0.072323 -0.824793
vn 0.423187 0.783703 -0.454667
vn 0.439968 0.010070 -0.897957
vn 0.438676 0.009674 -0.898593
vn 0.438167 0.011800 -0.898816
vn 0.438415 0.009817 -0.898719
vn 0.439937 0.010319 -0.897969
vn 0.437693 0.012414 -0.899039
vn 0.430210 0.062851 -0.900538
vn 0.430210 0.062851 -0.900538
vn 0.430209 0.062851 -0.900539
vn 0.430209 0.062851 -0.900539
vn 0.430207 0.062853 -0.900540
vn 0.430214 0.062850 -0.900536
vn 0.430209 0.062849 -0.900539
vn 0.430208 0.062853 -0.900539
vn 0.430210 0.062851 -0.900539
vn 0.430235 0.062849 -0.900526
vn -0.524928 0.611187 0.592369
vn -0.844393 -0.022638 -0.535246
vn -0.943537 -0.232697 -0.235777
vn 0.835436 0.120150 0.536294
vn 0.835436 0.120150 0.536294
vn 0.818316 0.210990 0.534643
vn 0.818126 0.211817 0.534606
vn -0.835439 -0.120148 -0.536290
vn -0.835439 -0.120148 -0.536290
vn -0.845380 -0.028823 -0.533388
vn -0.845513 -0.026880 -0.533277
vn 0.175690 0.962523 0.206595
vn 0.197395 0.955433 0.219507
vn 0.482794 0.788096 0.381856
vn 0.496306 0.776053 0.389130
vn 0.714581 0.491660 0.497639
vn 0.719072 0.483052 0.499596
vn -0.829495 0.259514 -0.494560
vn -0.827317 0.270998 -0.492044
vn -0.701112 0.603643 -0.379550
vn -0.690882 0.620236 -0.371469
vn -0.466327 0.860163 -0.206538
vn -0.446950 0.873481 -0.193046
vn -0.424649 -0.116010 0.897895
vn -0.423357 -0.114158 0.898742
vn -0.423366 -0.115616 0.898551
vn -0.423098 -0.115758 0.898659
vn -0.424608 -0.116257 0.897882
vn -0.422953 -0.114176 0.898930
vn -0.430207 -0.062849 0.900540
vn -0.430208 -0.062850 0.900539
vn -0.430207 -0.062849 0.900540
vn -0.430211 -0.062851 0.900538
vn -0.430209 -0.062853 0.900538
vn -0.430202 -0.062849 0.900542
vn -0.430208 -0.062850 0.900539
vn -0.430205 -0.062853 0.900541
vn -0.430203 -0.062853 0.900541
vn -0.430200 -0.062847 0.900543
vn 0.424811 0.053962 -0.903672
vn 0.437928 0.057672 -0.897159
vn 0.441882 0.047981 -0.895789
vn 0.422904 0.044412 -0.905086
vn 0.449215 0.030237 -0.892912
vn 0.449049 0.030684 -0.892980
vn 0.427062 0.075495 -0.901066
vn 0.429155 0.077137 -0.899931
vn 0.411782 0.065161 -0.908950
vn 0.409633 0.062323 -0.910119
vn 0.417104 0.070182 -0.906145
vn 0.414306 0.067629 -0.907622
vn 0.420923 0.073391 -0.904122
vn 0.419673 0.072367 -0.904786
vn 0.424429 0.075718 -0.902290
vn 0.423965 0.075445 -0.902531
vn 0.427689 0.077631 -0.900586
vn 0.427712 0.077644 -0.900574
vn 0.428898 0.078030 -0.899976
vn 0.428828 0.078022 -0.900010
vn 0.432829 0.077838 -0.898109
vn 0.433285 0.077753 -0.897897
vn 0.437278 0.076705 -0.896050
vn 0.438838 0.076125 -0.895336
vn 0.442447 0.074634 -0.893684
vn 0.446074 0.072870 -0.892024
vn 0.449640 0.070959 -0.890387
vn 0.452711 0.068681 -0.889008
vn 0.418469 0.080885 -0.904622
vn 0.414054 0.082488 -0.906507
vn -0.432742 -0.106605 0.895193
vn -0.434995 -0.076549 0.897173
vn -0.432424 -0.077526 0.898332
vn -0.432734 -0.106491 0.895210
vn -0.451228 -0.071583 0.889533
vn -0.455296 -0.069089 0.887655
vn -0.442912 -0.075178 0.893408
vn -0.447258 -0.073380 0.891390
vn -0.437366 -0.077047 0.895977
vn -0.439188 -0.076477 0.895134
vn -0.432767 -0.077959 0.898129
vn -0.433379 -0.077876 0.897841
vn -0.428876 -0.077939 0.899995
vn -0.428860 -0.077937 0.900003
vn -0.427691 -0.077468 0.900599
vn -0.427759 -0.077512 0.900563
vn -0.424512 -0.075395 0.902278
vn -0.424179 -0.075176 0.902452
vn -0.421255 -0.072971 0.904002
vn -0.420227 -0.072030 0.904556
vn -0.417856 -0.069763 0.905831
vn -0.415619 -0.067451 0.907034
vn -0.413481 -0.065038 0.908187
vn -0.412008 -0.062620 0.909026
vn -0.422187 -0.082203 0.902774
vn -0.423433 -0.084608 0.901968
vn -0.424295 -0.090213 0.901019
vn -0.430778 -0.090118 0.897947
vn -0.431425 -0.096104 0.897015
vn -0.422333 -0.094784 0.901472
vn 0.122014 -0.991602 0.042863
vn 0.122014 -0.991602 0.042863
vn 0.122014 -0.991602 0.042863
vn 0.122014 -0.991602 0.042863
vn -0.897686 -0.047872 -0.438028
vn -0.897686 -0.047872 -0.438028
vn -0.897686 -0.047872 -0.438028
vn -0.897686 -0.047872 -0.438028
vn -0.122088 0.991592 -0.042899
vn -0.122088 0.991592 -0.042899
vn -0.122088 0.991592 -0.042899
vn -0.122088 0.991592 -0.042899
vn 0.877997 0.207987 0.431118
vn 0.877997 0.207987 0.431118
vn 0.877997 0.207987 0.431118
vn 0.877997 0.207987 0.431118
vn 0.122015 -0.991602 0.042863
vn 0.122015 -0.991602 0.042863
vn 0.122015 -0.991602 0.042863
vn 0.122015 -0.991602 0.042863
vn 0.890728 0.128531 0.435986
vn 0.898123 0.038232 0.438079
vn 0.898352 0.032243 0.438091
vn 0.890728 0.128531 0.435986
vn 0.870795 -0.255802 0.419858
vn 0.868283 -0.266417 0.418457
vn 0.718114 -0.607430 0.339618
vn 0.713615 -0.613980 0.337318
vn 0.455056 -0.866027 0.207173
vn 0.451724 -0.868164 0.205514
vn 0.166180 -0.983984 0.064503
vn 0.165897 -0.984040 0.064365
vn 0.077722 -0.996750 0.021205
vn 0.078234 -0.996704 0.021455
vn -0.229783 -0.964783 -0.128039
vn -0.225514 -0.966060 -0.125981
vn -0.546187 -0.789756 -0.279222
vn -0.539921 -0.795089 -0.276259
vn -0.778552 -0.493698 -0.387452
vn -0.773442 -0.503454 -0.385126
vn -0.876021 -0.217756 -0.430313
vn -0.874786 -0.223634 -0.429810
vn -0.890728 -0.128531 -0.435986
vn -0.890728 -0.128531 -0.435986
vn 0.163958 -0.985474 -0.044262
vn 0.163958 -0.985474 -0.044262
vn 0.163958 -0.985474 -0.044262
vn 0.163958 -0.985474 -0.044262
vn -0.890729 -0.128529 -0.435984
vn -0.872235 -0.217217 -0.438204
vn -0.870757 -0.223029 -0.438224
vn -0.890729 -0.128529 -0.435984
vn -0.762707 -0.491484 -0.420383
vn -0.757286 -0.500959 -0.418996
vn -0.516619 -0.785557 -0.340597
vn -0.510444 -0.790568 -0.338303
vn -0.191028 -0.959195 -0.208454
vn -0.187224 -0.960304 -0.206796
vn 0.119464 -0.990650 -0.065884
vn 0.119752 -0.990625 -0.065745
vn 0.207924 -0.977884 -0.022585
vn 0.207420 -0.977986 -0.022836
vn 0.493794 -0.860291 0.126758
vn 0.490059 -0.862724 0.124696
vn 0.747652 -0.602992 0.278240
vn 0.743151 -0.609881 0.275267
vn 0.886617 -0.253382 0.386921
vn 0.884479 -0.264188 0.384579
vn 0.901907 0.038802 0.430184
vn 0.902389 0.032813 0.429672
vn 0.890730 0.128530 0.435982
vn 0.890730 0.128530 0.435982
vn 0.163958 -0.985474 -0.044261
vn 0.163958 -0.985474 -0.044261
vn 0.163958 -0.985474 -0.044261
vn 0.163958 -0.985474 -0.044261
vn 0.874537 0.207894 0.438138
vn 0.874537 0.207894 0.438138
vn 0.874537 0.207894 0.438138
vn 0.874537 0.207894 0.438138
vn -0.163897 0.985483 0.044290
vn -0.163897 0.985483 0.044290
vn -0.163897 0.985483 0.044290
vn -0.163897 0.985483 0.044290
vn -0.901042 -0.048689 -0.430991
vn -0.901042 -0.048689 -0.430991
vn -0.901042 -0.048689 -0.430991
vn -0.901042 -0.048689 -0.430991
vn -0.416605 -0.107739 0.902681
vn -0.146287 0.989216 0.007214
vn -0.141565 0.989927 0.001859
vn -0.140856 0.990030 0.001056
vn -0.805915 -0.196872 -0.558339
vn -0.805915 -0.196872 -0.558339
vn -0.805915 -0.196872 -0.558339
vn 0.829565 0.038116 0.557108
vn 0.829565 0.038116 0.557108
vn 0.829565 0.038116 0.557108
vn 0.415596 0.020861 -0.909310
vn -0.146287 0.989216 0.007215
vn -0.146287 0.989216 0.007215
vn -0.146287 0.989216 0.007215
s off
g SquareGravestone1 Gravestone
usemtl initialShadingGroup
f 1/2/1 2/253/2 4/114/3 3/116/4
s 1
f 37/17/5 33/18/6 22/19/7 24/20/8
s off
f 5/117/9 6/118/10 8/4/11 7/250/12
f 7/3/13 8/251/14 2/5/15 1/252/16
f 2/120/17 8/9/18 6/10/19 4/119/20
f 7/11/21 1/1/22 3/121/23 5/12/24
s 2
f 3/6/25 4/7/26 10/8/27 9/115/28
f 4/7/26 6/155/29 11/173/30 10/8/27
f 6/155/29 5/223/31 12/224/32 11/173/30
f 5/223/31 3/6/25 9/115/28 12/224/32
s 3
f 105/15/33 104/16/34 109/22/35 108/24/36
s 4
f 71/75/37 73/77/38 72/78/39
f 73/77/38 74/80/40 72/78/39
f 75/81/41 76/82/42 74/80/40
f 74/80/40 76/82/42 72/78/39
f 76/82/42 77/83/43 72/78/39
f 72/78/39 77/83/43 86/84/44
f 77/83/43 78/85/45 86/84/44
f 78/85/45 79/86/46 86/84/44
f 79/86/46 80/87/47 86/84/44
f 80/87/47 81/88/48 86/84/44
f 81/88/48 82/90/49 86/84/44
f 82/90/49 83/228/50 86/84/44
f 83/228/50 84/238/51 86/84/44
f 84/238/51 85/241/52 86/84/44
s 5
f 107/13/53 106/14/54 103/21/55
s 1
f 16/111/56 17/142/57 28/143/58 23/144/59
f 18/146/60 15/147/61 32/148/62 38/149/63
f 22/19/7 21/150/64 25/151/65 24/20/8
f 21/150/64 20/152/66 26/160/67 25/151/65
f 20/152/66 19/161/68 27/162/69 26/160/67
f 19/161/68 23/144/59 28/143/58 27/162/69
f 32/148/62 31/163/70 34/164/71 38/149/63
f 31/163/70 30/165/72 35/166/73 34/164/71
f 30/165/72 29/218/74 36/221/75 35/166/73
f 29/218/74 33/18/6 37/17/5 36/221/75
s 8
f 87/23/76 88/25/77 102/26/78
f 102/26/78 88/25/77 101/27/79
f 100/193/80 101/27/79 99/32/81
f 101/27/79 88/25/77 99/32/81
f 88/25/77 89/33/82 99/32/81
f 99/32/81 89/33/82 98/37/83
f 89/33/82 90/38/84 98/37/83
f 90/38/84 91/39/85 98/37/83
f 91/39/85 92/59/86 98/37/83
f 92/59/86 93/60/87 98/37/83
f 93/60/87 94/61/88 98/37/83
f 94/61/88 95/62/89 98/37/83
f 95/62/89 96/63/90 98/37/83
f 96/63/90 97/196/91 98/37/83
s 3
f 11/28/92 12/29/93 42/30/94 41/34/95
f 12/29/93 14/35/96 43/36/97 42/30/94
f 14/35/96 18/40/98 44/41/99 43/36/97
f 18/40/98 38/42/100 45/44/101 44/41/99
f 38/42/100 34/108/102 46/109/103 45/44/101
f 34/108/102 35/113/104 47/122/105 46/109/103
f 35/113/104 36/123/106 48/124/107 47/122/105
f 36/123/106 37/125/108 49/126/109 48/124/107
f 37/125/108 24/127/110 50/128/111 49/126/109
f 24/127/110 25/129/112 51/130/113 50/128/111
f 25/129/112 26/131/114 52/132/115 51/130/113
f 26/131/114 27/133/116 53/134/117 52/132/115
f 27/133/116 28/135/118 54/136/119 53/134/117
f 28/135/118 17/138/120 40/141/121 54/136/119
s 5
f 13/65/122 16/66/123 56/189/124 55/175/125
f 16/66/123 23/69/126 57/188/127 56/189/124
f 23/69/126 19/71/128 58/187/129 57/188/127
f 19/71/128 20/73/130 59/186/131 58/187/129
f 20/73/130 21/91/132 60/185/133 59/186/131
f 21/91/132 22/93/134 61/184/135 60/185/133
f 22/93/134 33/95/136 62/183/137 61/184/135
f 33/95/136 29/97/138 63/182/139 62/183/137
f 29/97/138 30/99/140 64/181/141 63/182/139
f 30/99/140 31/101/142 65/180/143 64/181/141
f 31/101/142 32/103/144 66/179/145 65/180/143
f 32/103/144 15/105/146 67/178/147 66/179/145
f 9/107/148 10/156/149 70/174/150 69/176/151
f 10/156/149 13/65/122 55/175/125 70/174/150
s off
f 40/43/152 39/47/153 71/48/154 72/49/155
f 39/46/156 41/76/157 73/239/158 71/242/159
f 41/45/160 42/240/161 74/246/162 73/247/163
f 42/243/164 43/244/165 75/248/166 74/249/167
f 43/50/168 44/51/169 76/52/170 75/53/171
s 11
f 44/51/172 45/54/173 77/55/174 76/52/175
f 45/54/173 46/56/176 78/57/177 77/55/174
f 46/56/176 47/58/178 79/79/179 78/57/177
f 47/58/178 48/89/180 80/137/181 79/79/179
f 48/89/180 49/226/182 81/227/183 80/137/181
f 49/226/182 50/229/184 82/230/185 81/227/183
f 50/229/184 51/231/186 83/232/187 82/230/185
f 51/231/186 52/233/188 84/234/189 83/232/187
f 52/233/188 53/235/190 85/236/191 84/234/189
f 53/235/190 54/237/192 86/245/193 85/236/191
f 54/237/192 40/43/194 72/49/195 86/245/193
s off
f 55/31/196 56/64/197 88/67/198 87/68/199
s 12
f 56/64/200 57/70/201 89/72/202 88/67/203
f 57/70/201 58/74/204 90/92/205 89/72/202
f 58/74/204 59/94/206 91/96/207 90/92/205
f 59/94/206 60/98/208 92/100/209 91/96/207
f 60/98/208 61/102/210 93/104/211 92/100/209
f 61/102/210 62/106/212 94/158/213 93/104/211
f 62/106/212 63/159/214 95/177/215 94/158/213
f 63/159/214 64/190/216 96/191/217 95/177/215
f 64/190/216 65/192/218 97/194/219 96/191/217
f 65/192/218 66/195/220 98/197/221 97/194/219
f 66/195/220 67/198/222 99/199/223 98/197/221
s off
f 67/198/224 68/200/225 100/211/226 99/199/227
f 68/201/228 69/208/229 101/209/230 100/210/231
f 69/202/232 70/203/233 102/206/234 101/207/235
f 70/204/236 55/205/237 87/212/238 102/213/239
s 5
f 107/13/53 103/21/55 9/107/148 69/176/151 68/171/240
f 15/105/146 107/13/53 68/171/240 67/178/147
f 18/112/241 14/145/242 15/167/243
f 15/167/243 14/145/242 106/168/54 107/169/53
f 12/110/244 9/139/245 103/140/55 106/154/54 14/157/246
s 3
f 10/172/247 11/215/248 104/216/34 105/222/33 13/225/249
f 109/22/35 104/16/34 11/28/92 41/34/95 39/153/250
f 17/138/120 108/24/36 109/22/35 39/153/250 40/141/121
f 16/170/251 13/214/252 17/217/253
f 17/217/253 13/214/252 108/219/36
f 13/214/252 105/220/33 108/219/36
